<svg id="Layer_1" data-name="Layer 1" xmlns="http://www.w3.org/2000/svg" viewBox="0 0 700 700"><defs><style>.cls-1{fill:#e1fff9;}.cls-2{fill:#5ec1c9;}</style></defs><title>stickerArtboard 1</title><path class="cls-1" d="M286.88,78.88A224.63,224.63,0,0,0,254,81.28a194.18,194.18,0,0,0-57.48,17.9c-22.38,11-42.47,26.17-61.41,46.23-18.24,19.3-32.21,40.58-41.52,63.23a200.23,200.23,0,0,0-14.74,76.42q0,35.76,0,71.53,0,28.13,0,56.25a221,221,0,0,0,2.92,36.05,193.34,193.34,0,0,0,19.28,57.74c10.73,20.58,24.94,39.21,43.45,57,40.35,38.71,87.1,57.52,142.92,57.52,1.44,0,2.9,0,4.36,0,17.62-.31,36.22-.47,55.27-.47,19.35,0,39.3.15,61,.48l3.83,0a228.58,228.58,0,0,0,35.92-2.76,192.25,192.25,0,0,0,67.25-24c22-12.88,42-30.19,59.64-51.47,30.61-37,46.2-80.16,46.33-128.27.14-51.08.11-103,.08-153.26l0-56.59H584V241c0,56.38,0,114.68,0,172a197.79,197.79,0,0,1-1.13,20.46,155.7,155.7,0,0,1-19.54,60.84c-10,17.69-23.12,33.37-40.09,47.93-31.77,27.27-69,41.1-110.62,41.1h-.21l-35.7,0H338.72q-25.26,0-50.52,0c-6,0-12.44-.32-19.71-.95a157.53,157.53,0,0,1-43-10c-22.81-8.77-43.68-23-62-42.24-32.54-34.15-48.57-75.29-47.63-122.3.71-36,1.22-74.69.08-113.92a194.1,194.1,0,0,1,2-34.48,158.34,158.34,0,0,1,18-53.1c10.33-18.67,24.07-35.12,42-50.28,31.22-26.4,67.43-39.9,107.63-40.11,15.15-.08,31.63-.12,50.39-.12q26.7,0,53.4.07l23.57,0a64.07,64.07,0,0,1,12.56,1.25c16.33,3.28,27.22,13.92,30.67,30a62.23,62.23,0,0,1,1.37,12.68c.1,22.55.07,45.33,0,64.62a65,65,0,0,1-.8,9.92,39.51,39.51,0,0,1-31.11,32.59A69.54,69.54,0,0,1,412,268.16c-48.07.09-95.18.17-134.3.22a72.52,72.52,0,0,0-72.32,72.43c0,15.39,0,30.16,0,41.58a108.16,108.16,0,0,0,8.07,41.29c5.84,14.17,14.64,26.89,26.88,38.88,22,21.51,47.42,32,77.73,32.05q15.3,0,30.6,0c11.57,0,21.79,0,31.26-.07,4.13,0,8.32-.2,12.45-.53A102.9,102.9,0,0,0,432.15,483c18.44-9.65,34-24.08,47.43-44.13,14.78-22,18.67-45.7,11.89-72.53A43.47,43.47,0,0,0,480,345.48a44.8,44.8,0,0,0-20.21-11.35c-3.25-.91-6.7-1.61-10.34-2.35-1.76-.36-3.52-.72-5.27-1.1l.35-25.39.87-.17c.85-.17,1.75-.35,2.65-.5A80.12,80.12,0,0,0,470.46,298c9.05-4.38,15.35-10.39,19.26-18.37a50.29,50.29,0,0,0,4.83-22.44c.08-38.55.08-79.8,0-129.81A46.67,46.67,0,0,0,490.8,109,50.13,50.13,0,0,0,445.34,78.9l-57.21,0H287l-.09-13Z"/><circle class="cls-1" cx="350" cy="350" r="326.72"/><path class="cls-2" d="M382,318.16c-41.3.11-82.59,0-123.89,0-.85,0-1.69.08-2.69.12-.05.93-.13,1.69-.14,2.44,0,20.22-.08,40.44,0,60.65a60.69,60.69,0,0,0,14.71,40c12.89,15.24,29.07,23.4,49.31,23.22,20.74-.18,41.47-.05,62.21,0a69.08,69.08,0,0,0,14.4-1.48c26.84-5.71,57.1-35.34,46.67-78.28C437.59,344.25,415.54,318.07,382,318.16Z"/><path class="cls-2" d="M409.54,10C172.57-29.62-29.62,172.57,10,409.54,34,553,147,666,290.46,690c237,39.61,439.16-162.58,399.55-399.55C666,147,553,34,409.54,10ZM584.69,551.11c-17.94,21.68-38.73,40.12-63.07,54.39a204.51,204.51,0,0,1-71.76,25.65,242.74,242.74,0,0,1-42,2.9c-38.62-.58-77.24-.7-115.85,0Q200.83,635.67,135.54,573c-18.47-17.71-34.11-37.58-46-60.33A204.92,204.92,0,0,1,69,451a232.42,232.42,0,0,1-3.1-38.17q0-63.9,0-127.79a212.18,212.18,0,0,1,15.71-81.34c10.37-25.23,25.4-47.42,44.08-67.2,18.92-20,40.33-36.72,65.11-48.95a205.91,205.91,0,0,1,61.3-19.1A235,235,0,0,1,287,65.92q79.2,0,158.38,0a62.91,62.91,0,0,1,57.36,38,59.34,59.34,0,0,1,4.81,23.44q.09,64.92,0,129.86a63.41,63.41,0,0,1-6.15,28.11c-5.47,11.16-14.18,19-25.25,24.34a93.47,93.47,0,0,1-26,7.76c-1.09.17-2.18.41-3.17.6,5.43,1.19,10.95,2.13,16.32,3.63a58,58,0,0,1,25.87,14.64A56.56,56.56,0,0,1,504,363.15c7.48,29.61,3.48,57.41-13.69,83C476.82,466.2,460,483,438.16,494.47A116.29,116.29,0,0,1,393.41,507q-6.71.54-13.43.57c-20.65.1-41.3.07-62,0-33.79-.06-62.65-12.16-86.76-35.75-12.74-12.47-23-26.66-29.8-43.21a120.46,120.46,0,0,1-9.05-46.21c0-11.42,0-26.19,0-41.59a85.37,85.37,0,0,1,85.26-85.39c39.12,0,86.23-.13,134.31-.22a57,57,0,0,0,11.06-1,26.44,26.44,0,0,0,20.83-21.88,51.67,51.67,0,0,0,.65-8c.05-21.51.08-43,0-64.54a48.17,48.17,0,0,0-1.09-10c-2.39-11.15-9.46-17.75-20.54-20a51.14,51.14,0,0,0-10-1c-42.42-.07-84.85-.22-127.27,0-37.56.2-70.66,12.8-99.33,37-15.71,13.28-29,28.59-39,46.65a144.68,144.68,0,0,0-16.52,48.78,179.13,179.13,0,0,0-1.84,32.16c1.11,38.17.68,76.36-.08,114.55-.88,44,14,81.55,44,113.09,16.31,17.13,35.14,30.57,57.31,39.09a143.77,143.77,0,0,0,39.47,9.21c6.19.53,12.41.89,18.62.9,41.39.08,82.77,0,124.16,0,38.85,0,72.93-12.71,102.37-38C529.62,519.63,542.32,505,552,487.92a142.3,142.3,0,0,0,17.93-55.8A185.34,185.34,0,0,0,571,413q.1-108.87,0-217.73v-3.49h62.74c.09.61.22,1.17.25,1.75,0,.77,0,1.55,0,2.33,0,72.92.15,145.84,0,218.77C633.85,465.92,617.44,511.52,584.69,551.11Z"/></svg>