<?xml version="1.0" encoding="utf-8"?>
<!-- Generator: Adobe Illustrator 22.1.0, SVG Export Plug-In . SVG Version: 6.00 Build 0)  -->
<svg version="1.1" id="Layer_1" xmlns="http://www.w3.org/2000/svg" xmlns:xlink="http://www.w3.org/1999/xlink" x="0px" y="0px"
	 viewBox="0 0 700 700" style="enable-background:new 0 0 700 700;" xml:space="preserve">
<style type="text/css">
	.st0{display:none;fill:#FFFFFF;}
</style>
<title>stickerArtboard 1</title>
<circle class="st0" cx="350" cy="350" r="302.5"/>
<path d="M379.6,320.5c-38.2,0.1-76.5,0-114.7,0c-0.8,0-1.6,0.1-2.5,0.1c0,0.9-0.1,1.6-0.1,2.3c0,18.7-0.1,37.4,0,56.2
	c-0.1,13.6,4.8,26.7,13.6,37c11.9,14.1,26.9,21.7,45.7,21.5c19.2-0.2,38.4,0,57.6,0c4.5,0,8.9-0.4,13.3-1.4
	c24.9-5.3,52.9-32.7,43.2-72.5C431.1,344.7,410.7,320.4,379.6,320.5z"/>
<g>
	<path d="M405.1,35.2C185.7-1.5-1.5,185.7,35.2,405.1c22.4,133.1,126.6,237.3,259.7,259.7c219.4,36.7,406.6-150.5,369.9-369.9
		C642.4,161.8,538.2,57.6,405.1,35.2z M567.3,536.2c-16.6,20.1-35.8,37.2-58.4,50.4c-20.5,12-43,20.1-66.4,23.8
		c-12.9,2-25.9,2.9-38.9,2.7c-35.8-0.5-71.5-0.6-107.3,0c-56.3,1-104.6-17.9-144.9-56.6c-17.1-16.4-31.6-34.8-42.6-55.9
		c-9.3-17.9-15.7-37.1-19-57C87.9,431.8,87,420,87,408.2c0-39.5,0-78.9,0-118.3c-0.1-25.8,4.8-51.4,14.5-75.3
		c9.6-23.4,23.5-43.9,40.8-62.2c17.5-18.5,37.3-34,60.3-45.3c17.9-8.8,37-14.8,56.8-17.7c10.7-1.6,21.5-2.4,32.2-2.3
		c48.9,0,97.8,0,146.6,0c23.1,0.1,43.9,13.9,53.1,35.2c2.9,6.9,4.5,14.2,4.5,21.7c0.1,40.1,0.1,80.2,0,120.2c0.1,9-1.8,17.9-5.7,26
		c-5.1,10.3-13.1,17.6-23.4,22.5c-7.6,3.5-15.7,6-24,7.2c-1,0.2-2,0.4-2.9,0.6c5,1.1,10.1,2,15.1,3.4c9,2.4,17.3,7,24,13.5
		c6.8,6.9,11.6,15.5,13.8,24.9c6.9,27.4,3.2,53.1-12.7,76.8c-12.5,18.6-28,34.2-48.3,44.8c-12.9,6.6-27,10.5-41.4,11.6
		c-4.1,0.3-8.3,0.5-12.4,0.5c-19.1,0.1-38.2,0.1-57.4,0c-31.3-0.1-58-11.3-80.3-33.1c-11.8-11.5-21.3-24.7-27.6-40
		c-5.6-13.6-8.5-28.1-8.5-42.7c0-10.6,0-24.2,0-38.5c0-43.6,35.3-79,78.9-79.1l124.3-0.2c3.4,0,6.9-0.3,10.2-1
		c10-2,17.8-10.1,19.3-20.2c0.4-2.4,0.6-4.9,0.6-7.4c0-19.9,0.1-39.8,0-59.8c0-3.1-0.3-6.2-1-9.3c-2.2-10.3-8.8-16.4-19-18.5
		c-3.1-0.6-6.2-0.9-9.3-0.9c-39.3-0.1-78.6-0.2-117.8,0c-34.8,0.2-65.4,11.9-92,34.3c-14.5,12.3-26.9,26.5-36.1,43.2
		c-7.8,14-12.9,29.3-15.3,45.2c-1.5,9.9-2,19.8-1.7,29.8c1,35.3,0.6,70.7-0.1,106.1c-0.8,40.7,13,75.5,40.8,104.7
		c15.1,15.8,32.5,28.3,53.1,36.2c11.7,4.5,24,7.4,36.5,8.5c5.7,0.5,11.5,0.8,17.2,0.8c38.3,0.1,76.6,0,115,0
		c36,0,67.5-11.8,94.8-35.2c13.8-11.8,25.5-25.3,34.5-41.2c9-15.9,14.7-33.5,16.5-51.6c0.6-5.9,1-11.8,1-17.7
		c0.1-67.2,0.1-134.4,0-201.6v-3.2h58.1c0.1,0.6,0.2,1.1,0.2,1.6c0,0.7,0,1.4,0,2.2c0,67.5,0.1,135,0,202.6
		C612.8,457.3,597.6,499.5,567.3,536.2L567.3,536.2z"/>
</g>
</svg>
