<svg id="Layer_1" data-name="Layer 1" xmlns="http://www.w3.org/2000/svg" viewBox="0 0 700 700"><title>stickerArtboard 1</title><path d="M379.61,320.52c-38.23.1-76.47,0-114.71,0-.78,0-1.56.07-2.49.11-.05.86-.12,1.56-.12,2.26,0,18.72-.08,37.44,0,56.16a56.08,56.08,0,0,0,13.62,37c11.94,14.11,26.91,21.67,45.66,21.51,19.19-.17,38.39-.05,57.59,0a62.84,62.84,0,0,0,13.33-1.37c24.86-5.28,52.87-32.71,43.22-72.47C431.1,344.68,410.68,320.44,379.61,320.52Z"/><path d="M405.12,35.19C185.72-1.48-1.48,185.72,35.19,405.12A316.63,316.63,0,0,0,294.88,664.81c219.4,36.67,406.6-150.53,369.93-369.93A316.63,316.63,0,0,0,405.12,35.19Zm162.17,501c-16.61,20.08-35.85,37.15-58.39,50.36a189.23,189.23,0,0,1-66.44,23.75,224,224,0,0,1-38.88,2.7c-35.75-.53-71.51-.64-107.26,0q-84.43,1.5-144.89-56.57c-17.09-16.4-31.58-34.79-42.56-55.85a189.88,189.88,0,0,1-19-57.05A214.67,214.67,0,0,1,87,408.18V289.86a196.8,196.8,0,0,1,14.54-75.31c9.6-23.35,23.52-43.9,40.82-62.22,17.51-18.54,37.34-34,60.27-45.32A190.88,190.88,0,0,1,259.4,89.33,219,219,0,0,1,291.65,87H438.28a58.25,58.25,0,0,1,53.11,35.16,54.9,54.9,0,0,1,4.45,21.7q.09,60.12,0,120.24a58.42,58.42,0,0,1-5.69,26c-5.06,10.34-13.13,17.58-23.38,22.54a86.1,86.1,0,0,1-24,7.18c-1,.17-2,.38-2.94.56,5,1.1,10.14,2,15.11,3.36a53.65,53.65,0,0,1,24,13.55,52.35,52.35,0,0,1,13.76,24.88c6.93,27.41,3.22,53.15-12.68,76.79-12.51,18.62-28,34.19-48.31,44.79a107.55,107.55,0,0,1-41.43,11.58q-6.21.5-12.43.52-28.68.15-57.36,0c-31.29-.07-58-11.27-80.33-33.11-11.8-11.54-21.28-24.68-27.59-40A111.54,111.54,0,0,1,204.1,380V341.49A79,79,0,0,1,283,262.43l124.34-.2a53.29,53.29,0,0,0,10.24-1A24.5,24.5,0,0,0,436.91,241a48.9,48.9,0,0,0,.6-7.35c0-19.92.07-39.84,0-59.76a45.13,45.13,0,0,0-1-9.27c-2.22-10.32-8.76-16.43-19-18.5a48.29,48.29,0,0,0-9.29-.92c-39.28-.06-78.55-.2-117.83,0-34.78.18-65.43,11.85-92,34.31-14.54,12.3-26.87,26.46-36.13,43.19A134,134,0,0,0,147,267.86a165.77,165.77,0,0,0-1.7,29.78c1,35.34.63,70.7-.08,106.06-.81,40.72,13,75.51,40.79,104.71,15.11,15.85,32.53,28.3,53.07,36.19a133.54,133.54,0,0,0,36.54,8.53c5.73.49,11.49.82,17.24.83,38.32.07,76.64,0,115,0q54,0,94.79-35.15c13.77-11.82,25.52-25.34,34.49-41.18A131.89,131.89,0,0,0,553.63,426a171.69,171.69,0,0,0,1-17.71q.11-100.8,0-201.59v-3.2h58.1c.08.56.2,1.09.23,1.62v2.16c0,67.51.14,135,0,202.55-.15,47.5-15.34,89.72-45.67,126.37Z"/></svg>