<svg id="Layer_1" data-name="Layer 1" xmlns="http://www.w3.org/2000/svg" viewBox="0 0 700 700"><defs><style>.cls-1{fill:#e1fff9;}</style></defs><title>stickerArtboard 1</title><path class="cls-1" d="M350,681.43a347.49,347.49,0,0,1-57.1-4.78A328.21,328.21,0,0,1,23.35,407.1c-8.4-50.25-5.78-100,7.77-147.73A331.64,331.64,0,0,1,350,18.57a347.68,347.68,0,0,1,57.1,4.78A328.21,328.21,0,0,1,676.65,292.9c8.4,50.25,5.78,100-7.77,147.74A331.66,331.66,0,0,1,350,681.43ZM291.55,99a207,207,0,0,0-30.41,2.22,179.55,179.55,0,0,0-53.21,16.57C187.2,128,168.6,142,151.06,160.57c-16.88,17.88-29.82,37.58-38.44,58.55A185.52,185.52,0,0,0,99,289.88q0,33.11,0,66.22,0,26,0,52.09a204.18,204.18,0,0,0,2.7,33.37A179,179,0,0,0,119.51,495c9.94,19.05,23.1,36.31,40.23,52.75C197.1,583.61,240.38,601,292.06,601l4,0c16.32-.29,33.54-.44,51.18-.44,17.91,0,36.39.14,56.48.44l3.54,0a211,211,0,0,0,33.26-2.56,178.17,178.17,0,0,0,62.27-22.25c20.34-11.92,38.91-28,55.22-47.66,28.34-34.26,42.77-74.21,42.89-118.76.13-47.29.1-95.39.07-141.9q0-26.19,0-52.39H566.65v33.56c0,52.2,0,106.18,0,159.27a181.5,181.5,0,0,1-1.05,18.94,144.15,144.15,0,0,1-18.09,56.33C538.21,500,526.06,514.5,510.35,528c-29.42,25.25-63.87,38-102.41,38H339.55q-23.39,0-46.77,0c-5.55,0-11.51-.3-18.25-.88a145.62,145.62,0,0,1-39.82-9.28c-21.12-8.11-40.45-21.27-57.45-39.11-30.12-31.61-45-69.71-44.09-113.23.66-33.32,1.13-69.15.08-105.48a178.84,178.84,0,0,1,1.83-31.92,146.6,146.6,0,0,1,16.66-49.17c9.57-17.28,22.28-32.51,38.88-46.55,28.9-24.45,62.43-36.94,99.65-37.14,14-.07,29.29-.11,46.66-.11q24.72,0,49.44.06l21.82,0a60,60,0,0,1,11.63,1.16c15.12,3,25.2,12.89,28.39,27.74a57.35,57.35,0,0,1,1.28,11.74c.09,20.88.06,42,0,59.84a60.52,60.52,0,0,1-.75,9.18A36.57,36.57,0,0,1,420,273.05a65,65,0,0,1-12.58,1.18l-124.34.2a67.14,67.14,0,0,0-67,67.06c0,14.25,0,27.92,0,38.5a100.06,100.06,0,0,0,7.47,38.23c5.41,13.12,13.55,24.9,24.89,36,20.36,19.92,43.9,29.63,72,29.68q14.16,0,28.33,0c10.71,0,20.18,0,28.94-.06,3.82,0,7.7-.19,11.53-.49a95.49,95.49,0,0,0,36.83-10.25c17.07-8.93,31.44-22.3,43.92-40.85,13.68-20.35,17.28-42.32,11-67.16a40.31,40.31,0,0,0-10.59-19.31,41.63,41.63,0,0,0-18.72-10.5c-3-.84-6.2-1.49-9.57-2.18-1.63-.33-3.26-.66-4.88-1l.32-23.51.8-.16c.8-.15,1.63-.32,2.46-.45a74.54,74.54,0,0,0,20.73-6.14c8.38-4.06,14.21-9.62,17.83-17a46.47,46.47,0,0,0,4.47-20.78c.08-35.69.08-73.88,0-120.19a43.19,43.19,0,0,0-3.48-17A46.43,46.43,0,0,0,438.27,99H291.64l-.09-12Z"/><circle class="cls-1" cx="350" cy="350" r="302.5"/><path d="M379.61,320.52c-38.23.1-76.47,0-114.71,0-.78,0-1.56.07-2.49.11-.05.86-.12,1.56-.12,2.26,0,18.72-.08,37.44,0,56.16a56.1,56.1,0,0,0,13.62,37c11.94,14.11,26.91,21.67,45.66,21.51,19.19-.17,38.39-.05,57.59,0a62.84,62.84,0,0,0,13.33-1.37c24.86-5.28,52.87-32.71,43.22-72.47C431.1,344.68,410.68,320.44,379.61,320.52Z"/><path d="M405.12,35.19C185.72-1.48-1.48,185.72,35.19,405.12A316.63,316.63,0,0,0,294.88,664.81c219.4,36.67,406.6-150.53,369.93-369.93A316.63,316.63,0,0,0,405.12,35.19Zm162.17,501c-16.61,20.08-35.85,37.15-58.39,50.36a189.16,189.16,0,0,1-66.44,23.75A223.88,223.88,0,0,1,403.58,613c-35.75-.53-71.51-.64-107.26,0q-84.43,1.5-144.89-56.57c-17.09-16.4-31.58-34.79-42.56-55.85a189.86,189.86,0,0,1-19-57.05A214.55,214.55,0,0,1,87,408.18Q87,349,87,289.86a196.61,196.61,0,0,1,14.54-75.31c9.6-23.35,23.52-43.9,40.82-62.22,17.51-18.54,37.34-34,60.27-45.32a191,191,0,0,1,56.77-17.68A217.79,217.79,0,0,1,291.65,87Q365,87,438.28,87a58.26,58.26,0,0,1,53.11,35.16,54.83,54.83,0,0,1,4.45,21.7q.09,60.12,0,120.24a58.52,58.52,0,0,1-5.69,26c-5.06,10.34-13.13,17.58-23.38,22.54a86.3,86.3,0,0,1-24,7.18c-1,.17-2,.38-2.94.56,5,1.1,10.14,2,15.11,3.36a53.69,53.69,0,0,1,24,13.55,52.33,52.33,0,0,1,13.76,24.88c6.93,27.41,3.22,53.15-12.68,76.79-12.51,18.62-28.05,34.19-48.31,44.79a107.66,107.66,0,0,1-41.43,11.58q-6.21.5-12.43.52c-19.12.1-38.24.07-57.36,0-31.29-.07-58-11.27-80.33-33.11-11.8-11.54-21.28-24.68-27.59-40A111.55,111.55,0,0,1,204.1,380c0-10.58,0-24.25,0-38.51A79,79,0,0,1,283,262.43l124.34-.2a53.17,53.17,0,0,0,10.24-1A24.49,24.49,0,0,0,436.91,241a48.9,48.9,0,0,0,.6-7.35c0-19.92.07-39.84,0-59.76a45.22,45.22,0,0,0-1-9.27c-2.22-10.32-8.76-16.43-19-18.5a48.29,48.29,0,0,0-9.29-.92c-39.28-.06-78.55-.2-117.83,0-34.78.18-65.43,11.85-92,34.31-14.54,12.3-26.87,26.46-36.13,43.19a133.91,133.91,0,0,0-15.3,45.16,166.53,166.53,0,0,0-1.7,29.78c1,35.34.63,70.7-.08,106.06-.81,40.72,13,75.51,40.79,104.71,15.11,15.85,32.53,28.3,53.07,36.19a133.54,133.54,0,0,0,36.54,8.53c5.73.49,11.49.82,17.24.83,38.32.07,76.64,0,115,0,36,0,67.53-11.76,94.79-35.15,13.77-11.82,25.52-25.34,34.49-41.18A131.9,131.9,0,0,0,553.63,426a171.67,171.67,0,0,0,1-17.71q.1-100.8,0-201.59V203.5h58.1c.08.56.2,1.09.23,1.62,0,.71,0,1.44,0,2.16,0,67.51.14,135,0,202.55C612.81,457.33,597.62,499.55,567.29,536.2Z"/></svg>